<svg width="1728" height="56" viewBox="0 0 1728 56" fill="none" xmlns="http://www.w3.org/2000/svg">
<rect width="27.6984" height="27.6984" fill="#E4E4E4"/>
<rect x="55.397" y="-6.10352e-05" width="27.6984" height="27.6984" fill="#E4E4E4"/>
<rect x="27.6982" y="27.6982" width="27.6984" height="27.6984" fill="#E4E4E4"/>
<rect x="110.794" y="-6.10352e-05" width="27.6984" height="27.6984" fill="#E4E4E4"/>
<rect x="166.191" y="-6.10352e-05" width="27.6984" height="27.6984" fill="#E4E4E4"/>
<rect x="138.492" y="27.6982" width="27.6984" height="27.6984" fill="#E4E4E4"/>
<rect x="83.0953" y="27.6982" width="27.6984" height="27.6984" fill="#E4E4E4"/>
<rect x="193.889" y="-6.10352e-05" width="27.6984" height="27.6984" fill="#E4E4E4"/>
<rect x="249.286" y="-0.00012207" width="27.6984" height="27.6984" fill="#E4E4E4"/>
<rect x="221.587" y="27.6982" width="27.6984" height="27.6984" fill="#E4E4E4"/>
<rect x="304.683" y="-0.00012207" width="27.6984" height="27.6984" fill="#E4E4E4"/>
<rect x="360.08" y="-0.00012207" width="27.6984" height="27.6984" fill="#E4E4E4"/>
<rect x="332.381" y="27.6982" width="27.6984" height="27.6984" fill="#E4E4E4"/>
<rect x="276.984" y="27.6982" width="27.6984" height="27.6984" fill="#E4E4E4"/>
<rect x="387.778" y="6.10352e-05" width="27.6984" height="27.6984" fill="#E4E4E4"/>
<rect x="443.175" y="6.10352e-05" width="27.6984" height="27.6984" fill="#E4E4E4"/>
<rect x="415.476" y="27.6983" width="27.6984" height="27.6984" fill="#E4E4E4"/>
<rect x="498.572" y="0.00012207" width="27.6984" height="27.6984" fill="#E4E4E4"/>
<rect x="553.968" y="0.00012207" width="27.6984" height="27.6984" fill="#E4E4E4"/>
<rect x="526.27" y="27.6984" width="27.6984" height="27.6984" fill="#E4E4E4"/>
<rect x="470.872" y="27.6984" width="27.6984" height="27.6984" fill="#E4E4E4"/>
<rect x="581.667" y="6.10352e-05" width="27.6984" height="27.6984" fill="#E4E4E4"/>
<rect x="637.063" y="6.10352e-05" width="27.6984" height="27.6984" fill="#E4E4E4"/>
<rect x="609.365" y="27.6983" width="27.6984" height="27.6984" fill="#E4E4E4"/>
<rect x="692.461" y="0.00012207" width="27.6984" height="27.6984" fill="#E4E4E4"/>
<rect x="747.858" y="0.00012207" width="27.6984" height="27.6984" fill="#E4E4E4"/>
<rect x="720.159" y="27.6984" width="27.6984" height="27.6984" fill="#E4E4E4"/>
<rect x="664.762" y="27.6984" width="27.6984" height="27.6984" fill="#E4E4E4"/>
<rect x="775.556" width="27.6984" height="27.6984" fill="#E4E4E4"/>
<rect x="830.953" y="-6.10352e-05" width="27.6984" height="27.6984" fill="#E4E4E4"/>
<rect x="803.254" y="27.6982" width="27.6984" height="27.6984" fill="#E4E4E4"/>
<rect x="886.35" y="-6.10352e-05" width="27.6984" height="27.6984" fill="#E4E4E4"/>
<rect x="941.747" y="-6.10352e-05" width="27.6984" height="27.6984" fill="#E4E4E4"/>
<rect x="914.048" y="27.6982" width="27.6984" height="27.6984" fill="#E4E4E4"/>
<rect x="858.651" y="27.6982" width="27.6984" height="27.6984" fill="#E4E4E4"/>
<rect x="969.445" width="27.6984" height="27.6984" fill="#E4E4E4"/>
<rect x="1024.84" y="-6.10352e-05" width="27.6984" height="27.6984" fill="#E4E4E4"/>
<rect x="997.143" y="27.6982" width="27.6984" height="27.6984" fill="#E4E4E4"/>
<rect x="1080.24" y="-6.10352e-05" width="27.6984" height="27.6984" fill="#E4E4E4"/>
<rect x="1135.64" y="-6.10352e-05" width="27.6984" height="27.6984" fill="#E4E4E4"/>
<rect x="1107.94" y="27.6982" width="27.6984" height="27.6984" fill="#E4E4E4"/>
<rect x="1052.54" y="27.6982" width="27.6984" height="27.6984" fill="#E4E4E4"/>
<rect x="1163.33" y="-0.00012207" width="27.6984" height="27.6984" fill="#E4E4E4"/>
<rect x="1218.73" y="-0.00012207" width="27.6984" height="27.6984" fill="#E4E4E4"/>
<rect x="1191.03" y="27.6981" width="27.6984" height="27.6984" fill="#E4E4E4"/>
<rect x="1274.13" y="-6.10352e-05" width="27.6984" height="27.6984" fill="#E4E4E4"/>
<rect x="1329.52" y="-6.10352e-05" width="27.6984" height="27.6984" fill="#E4E4E4"/>
<rect x="1301.83" y="27.6982" width="27.6984" height="27.6984" fill="#E4E4E4"/>
<rect x="1246.43" y="27.6982" width="27.6984" height="27.6984" fill="#E4E4E4"/>
<rect x="1357.22" y="6.10352e-05" width="27.6984" height="27.6984" fill="#E4E4E4"/>
<rect x="1412.62" y="6.10352e-05" width="27.6984" height="27.6984" fill="#E4E4E4"/>
<rect x="1384.92" y="27.6983" width="27.6984" height="27.6984" fill="#E4E4E4"/>
<rect x="1468.02" y="0.00012207" width="27.6984" height="27.6984" fill="#E4E4E4"/>
<rect x="1523.41" y="0.00012207" width="27.6984" height="27.6984" fill="#E4E4E4"/>
<rect x="1495.72" y="27.6984" width="27.6984" height="27.6984" fill="#E4E4E4"/>
<rect x="1440.32" y="27.6984" width="27.6984" height="27.6984" fill="#E4E4E4"/>
<rect x="1551.11" width="27.6984" height="27.6984" fill="#E4E4E4"/>
<rect x="1606.51" y="-6.10352e-05" width="27.6984" height="27.6984" fill="#E4E4E4"/>
<rect x="1578.81" y="27.6982" width="27.6984" height="27.6984" fill="#E4E4E4"/>
<rect x="1661.91" y="-6.10352e-05" width="27.6984" height="27.6984" fill="#E4E4E4"/>
<rect x="1717.3" y="-6.10352e-05" width="27.6984" height="27.6984" fill="#E4E4E4"/>
<rect x="1689.6" y="27.6982" width="27.6984" height="27.6984" fill="#E4E4E4"/>
<rect x="1634.21" y="27.6982" width="27.6984" height="27.6984" fill="#E4E4E4"/>
</svg>
