<svg width="811" height="862" viewBox="0 0 811 862" fill="none" xmlns="http://www.w3.org/2000/svg">
<path opacity="0.2" d="M503.093 856.141L428.004 430.596L574.461 836.895L503.093 856.141ZM391.056 861.2L503.093 856.141L428.004 430.607L391.056 861.2ZM352.906 856.141L427.993 430.596L281.535 836.909L352.906 856.141ZM281.535 836.909L428.004 430.596L182.01 784.926L281.535 836.909ZM151.475 761.366L427.993 430.607L99.2338 708.793L151.475 761.366ZM99.2338 708.793L428.004 430.596L38.8676 613.71L99.2338 708.793ZM24.1465 577.941L427.993 430.596L0 467.769L24.1465 577.941ZM0 467.769L427.993 430.607L0 393.435V467.769ZM5.02848 355.051L428.004 430.596L36.2018 245.554L5.02848 355.051ZM38.8676 247.491L427.993 430.607L75.8161 183.116L38.8676 247.491ZM99.2338 152.395L427.993 430.596L151.475 99.837L99.2338 152.395ZM151.475 99.837L428.004 430.607L245.996 39.1039L151.475 99.837ZM281.535 24.2933L427.993 430.596L352.906 5.05908L281.535 24.2933ZM352.906 5.05908L427.993 430.596L464.941 0L352.906 5.05908ZM503.093 5.04685L428.004 430.596L574.45 24.2933L503.093 5.04685ZM574.45 24.2933L427.993 430.596L673.988 76.277L574.45 24.2933ZM704.512 99.837L427.993 430.596L756.752 152.395L704.512 99.837ZM756.752 152.395L427.993 430.596L817.119 247.479L756.752 152.395ZM831.852 283.247L427.993 430.596L850.97 355.051L831.852 283.247ZM850.97 355.051L428.004 430.596L856 467.755L850.97 355.051ZM850.97 506.15L427.993 430.607L831.841 577.956L850.97 506.15ZM831.841 577.956L427.993 430.596L780.182 678.087L831.841 577.956ZM756.763 708.793L427.993 430.596L704.512 761.352L756.763 708.793ZM704.512 761.352L427.993 430.596L610.004 822.084L704.512 761.352Z" fill="url(#paint0_radial_0_564)"/>
<defs>
<radialGradient id="paint0_radial_0_564" cx="0" cy="0" r="1" gradientUnits="userSpaceOnUse" gradientTransform="translate(428 404.962) rotate(90) scale(406.739 404.283)">
<stop stop-color="#979797"/>
<stop offset="1" stop-color="white" stop-opacity="0"/>
</radialGradient>
</defs>
</svg>
