<svg width="43" height="43" viewBox="0 0 43 43" fill="none" xmlns="http://www.w3.org/2000/svg">
<path fill-rule="evenodd" clip-rule="evenodd" d="M38.3322 0.853114C40.6129 -0.270984 43.0581 1.98651 42.6553 4.84465L37.8986 38.6034C37.4399 41.8584 34.3857 43.7261 31.8345 42.104C29.6996 40.7467 26.5323 38.6577 23.6777 36.4744C22.2523 35.384 17.8876 31.8881 18.4241 29.3995C18.8828 27.2717 26.2203 19.2768 30.4133 14.5222C32.0603 12.6546 31.3102 11.5756 29.365 13.2952C24.5398 17.561 16.7929 24.0466 14.231 25.8719C11.9707 27.4822 10.7906 27.7571 9.38291 27.4822C6.81234 26.9809 4.42911 26.2044 2.4834 25.2604C-0.146371 23.9843 -0.0182756 19.7541 2.48162 18.5222L38.3322 0.853114Z" fill="#1A140E"/>
</svg>
