<svg width="1728" height="56" viewBox="0 0 1728 56" fill="none" xmlns="http://www.w3.org/2000/svg">
<rect x="-9" y="-2.28882e-05" width="27.6984" height="27.6984" fill="#A69898"/>
<rect x="46.397" y="-5.34058e-05" width="27.6984" height="27.6984" fill="#A69898"/>
<rect x="18.6982" y="27.6982" width="27.6984" height="27.6984" fill="#A69898"/>
<rect x="101.794" y="-5.34058e-05" width="27.6984" height="27.6984" fill="#A69898"/>
<rect x="157.191" y="-5.34058e-05" width="27.6984" height="27.6984" fill="#A69898"/>
<rect x="129.492" y="27.6982" width="27.6984" height="27.6984" fill="#A69898"/>
<rect x="74.0953" y="27.6982" width="27.6984" height="27.6984" fill="#A69898"/>
<rect x="184.889" y="-3.05176e-05" width="27.6984" height="27.6984" fill="#A69898"/>
<rect x="240.286" y="-6.10352e-05" width="27.6984" height="27.6984" fill="#A69898"/>
<rect x="212.587" y="27.6982" width="27.6984" height="27.6984" fill="#A69898"/>
<rect x="295.683" y="-6.10352e-05" width="27.6984" height="27.6984" fill="#A69898"/>
<rect x="351.08" y="-6.10352e-05" width="27.6984" height="27.6984" fill="#A69898"/>
<rect x="323.381" y="27.6982" width="27.6984" height="27.6984" fill="#A69898"/>
<rect x="267.984" y="27.6982" width="27.6984" height="27.6984" fill="#A69898"/>
<rect x="378.778" y="7.62939e-05" width="27.6984" height="27.6984" fill="#A69898"/>
<rect x="434.175" y="7.62939e-05" width="27.6984" height="27.6984" fill="#A69898"/>
<rect x="406.476" y="27.6983" width="27.6984" height="27.6984" fill="#A69898"/>
<rect x="489.572" y="0.000106812" width="27.6984" height="27.6984" fill="#A69898"/>
<rect x="544.968" y="0.000106812" width="27.6984" height="27.6984" fill="#A69898"/>
<rect x="517.27" y="27.6984" width="27.6984" height="27.6984" fill="#A69898"/>
<rect x="461.872" y="27.6984" width="27.6984" height="27.6984" fill="#A69898"/>
<rect x="572.667" y="7.62939e-05" width="27.6984" height="27.6984" fill="#A69898"/>
<rect x="628.063" y="7.62939e-05" width="27.6984" height="27.6984" fill="#A69898"/>
<rect x="600.365" y="27.6983" width="27.6984" height="27.6984" fill="#A69898"/>
<rect x="683.461" y="0.000106812" width="27.6984" height="27.6984" fill="#A69898"/>
<rect x="738.858" y="0.000106812" width="27.6984" height="27.6984" fill="#A69898"/>
<rect x="711.159" y="27.6984" width="27.6984" height="27.6984" fill="#A69898"/>
<rect x="655.762" y="27.6984" width="27.6984" height="27.6984" fill="#A69898"/>
<rect x="766.556" y="1.52588e-05" width="27.6984" height="27.6984" fill="#A69898"/>
<rect x="821.953" y="-1.52588e-05" width="27.6984" height="27.6984" fill="#A69898"/>
<rect x="794.254" y="27.6982" width="27.6984" height="27.6984" fill="#A69898"/>
<rect x="877.35" y="-1.52588e-05" width="27.6984" height="27.6984" fill="#A69898"/>
<rect x="932.747" y="-1.52588e-05" width="27.6984" height="27.6984" fill="#A69898"/>
<rect x="905.048" y="27.6982" width="27.6984" height="27.6984" fill="#A69898"/>
<rect x="849.651" y="27.6982" width="27.6984" height="27.6984" fill="#A69898"/>
<rect x="960.445" width="27.6984" height="27.6984" fill="#A69898"/>
<rect x="1015.84" y="-3.05176e-05" width="27.6984" height="27.6984" fill="#A69898"/>
<rect x="988.143" y="27.6982" width="27.6984" height="27.6984" fill="#A69898"/>
<rect x="1071.24" y="-3.05176e-05" width="27.6984" height="27.6984" fill="#A69898"/>
<rect x="1126.64" y="-3.05176e-05" width="27.6984" height="27.6984" fill="#A69898"/>
<rect x="1098.94" y="27.6982" width="27.6984" height="27.6984" fill="#A69898"/>
<rect x="1043.54" y="27.6982" width="27.6984" height="27.6984" fill="#A69898"/>
<rect x="1154.33" y="-0.00012207" width="27.6984" height="27.6984" fill="#A69898"/>
<rect x="1209.73" y="-0.00012207" width="27.6984" height="27.6984" fill="#A69898"/>
<rect x="1182.03" y="27.6981" width="27.6984" height="27.6984" fill="#A69898"/>
<rect x="1265.13" y="-9.15527e-05" width="27.6984" height="27.6984" fill="#A69898"/>
<rect x="1320.52" y="-9.15527e-05" width="27.6984" height="27.6984" fill="#A69898"/>
<rect x="1292.83" y="27.6982" width="27.6984" height="27.6984" fill="#A69898"/>
<rect x="1237.43" y="27.6982" width="27.6984" height="27.6984" fill="#A69898"/>
<rect x="1348.22" y="7.62939e-05" width="27.6984" height="27.6984" fill="#A69898"/>
<rect x="1403.62" y="7.62939e-05" width="27.6984" height="27.6984" fill="#A69898"/>
<rect x="1375.92" y="27.6983" width="27.6984" height="27.6984" fill="#A69898"/>
<rect x="1459.02" y="0.000106812" width="27.6984" height="27.6984" fill="#A69898"/>
<rect x="1514.41" y="0.000106812" width="27.6984" height="27.6984" fill="#A69898"/>
<rect x="1486.72" y="27.6984" width="27.6984" height="27.6984" fill="#A69898"/>
<rect x="1431.32" y="27.6984" width="27.6984" height="27.6984" fill="#A69898"/>
<rect x="1542.11" y="1.52588e-05" width="27.6984" height="27.6984" fill="#A69898"/>
<rect x="1597.51" y="-1.52588e-05" width="27.6984" height="27.6984" fill="#A69898"/>
<rect x="1569.81" y="27.6982" width="27.6984" height="27.6984" fill="#A69898"/>
<rect x="1652.91" y="-1.52588e-05" width="27.6984" height="27.6984" fill="#A69898"/>
<rect x="1708.3" y="-1.52588e-05" width="27.6984" height="27.6984" fill="#A69898"/>
<rect x="1680.6" y="27.6982" width="27.6984" height="27.6984" fill="#A69898"/>
<rect x="1625.21" y="27.6982" width="27.6984" height="27.6984" fill="#A69898"/>
</svg>
