<svg width="1728" height="425" viewBox="0 0 1728 425" fill="none" xmlns="http://www.w3.org/2000/svg">
<path d="M1039.2 0.0150146H994.237V50.2223H1039.2V0.0150146Z" fill="white"/>
<path d="M1039.2 65.7594V50.2234H994.237V100.44H1039.2V65.7594Z" fill="#F6F6F6"/>
<path d="M1039.2 100.44H994.237V150.65H1039.2V100.44Z" fill="white"/>
<path d="M1039.2 150.651H994.237V200.867H1039.2V150.651Z" fill="white"/>
<path d="M1039.2 200.867H994.237V251.088H1039.2V200.867Z" fill="white"/>
<path d="M1039.2 251.088H994.237V301.303H1039.2V251.088Z" fill="#ECECEC"/>
<path d="M994.237 251.082H943.997V301.303H994.237V251.082Z" fill="white"/>
<path d="M994.237 200.867H943.997V251.081H994.237V200.867Z" fill="#F5F5F5"/>
<path d="M994.237 150.647H943.997V200.867H994.237V150.647Z" fill="white"/>
<path d="M994.237 100.44H943.997V150.647H994.237V100.44Z" fill="#F6F6F6"/>
<path d="M994.237 50.2188H943.997V100.44H994.237V50.2188Z" fill="white"/>
<path d="M994.237 0.0150146H943.997V50.2188H994.237V0.0150146Z" fill="white"/>
<path d="M943.997 0.0150146H893.757V50.2223H943.997V0.0150146Z" fill="white"/>
<path d="M943.997 50.2234H893.757V100.44H943.997V50.2234Z" fill="#FBFBFB"/>
<path d="M943.997 100.44H893.757V150.65H943.997V100.44Z" fill="white"/>
<path d="M943.997 150.651H893.757V200.867H943.997V150.651Z" fill="#FCFCFC"/>
<path d="M943.997 200.867H893.757V251.087H943.997V200.867Z" fill="white"/>
<path d="M943.997 251.088H893.757V301.303H943.997V251.088Z" fill="#FBFBFB"/>
<path d="M893.757 251.082H843.52V301.303H893.757V251.082Z" fill="#F2F2F2"/>
<path d="M893.757 200.867H843.52V251.081H893.757V200.867Z" fill="#F5F5F5"/>
<path d="M893.757 150.647H843.52V200.867H893.757V150.647Z" fill="white"/>
<path d="M893.757 100.44H843.52V150.647H893.757V100.44Z" fill="#F4F4F4"/>
<path d="M893.757 50.2188H843.52V100.44H893.757V50.2188Z" fill="white"/>
<path d="M893.757 0.0150146H843.52V50.2188H893.757V0.0150146Z" fill="#FCFCFC"/>
<path d="M843.52 0.00695801H793.28V50.2177H843.52V0.00695801Z" fill="white"/>
<path d="M843.52 50.2188H793.28V100.435H843.52V50.2188Z" fill="#EEEEEE"/>
<path d="M843.52 100.435H793.28V150.647H843.52V100.435Z" fill="white"/>
<path d="M843.52 150.647H793.28V200.86H843.52V150.647Z" fill="#FBFBFB"/>
<path d="M843.52 200.86H793.28V251.081H843.52V200.86Z" fill="white"/>
<path d="M843.52 251.082H793.28V301.296H843.52V251.082Z" fill="#E4E4E4"/>
<path d="M793.281 251.082H743.038V301.296H793.281V251.082Z" fill="white"/>
<path d="M793.281 200.86H743.038V251.081H793.281V200.86Z" fill="white"/>
<path d="M793.281 150.64H743.038V200.86H793.281V150.64Z" fill="white"/>
<path d="M793.281 100.44H743.038V150.647H793.281V100.44Z" fill="#EEEEEE"/>
<path d="M793.281 50.2188H743.038V100.44H793.281V50.2188Z" fill="white"/>
<path d="M793.281 0.00695801H743.038V50.2177H793.281V0.00695801Z" fill="#F5F5F5"/>
<path d="M743.038 0.00695801H692.799V50.2177H743.038V0.00695801Z" fill="white"/>
<path d="M743.038 50.2188H692.799V100.435H743.038V50.2188Z" fill="#F5F5F5"/>
<path d="M743.038 100.435H692.799V150.647H743.038V100.435Z" fill="white"/>
<path d="M743.038 150.647H692.799V200.86H743.038V150.647Z" fill="#F5F5F5"/>
<path d="M743.038 200.86H692.799V251.081H743.038V200.86Z" fill="white"/>
<path d="M743.038 251.082H692.799V301.296H743.038V251.082Z" fill="#F5F5F5"/>
<path d="M1039.2 301.303H994.237V351.519H1039.2V301.303Z" fill="white"/>
<path d="M1039.2 351.519H994.237V401.729H1039.2V351.519Z" fill="#E4E4E4"/>
<path d="M1039.2 401.729H994.237V451.95H1039.2V401.729Z" fill="#EEEEEE"/>
<path d="M994.237 401.729H943.997V451.941H994.237V401.729Z" fill="#F2F2F2"/>
<path d="M994.237 351.519H943.997V401.729H994.237V351.519Z" fill="white"/>
<path d="M994.237 301.303H943.997V351.519H994.237V301.303Z" fill="#F3F3F3"/>
<path d="M943.997 301.303H893.757V351.519H943.997V301.303Z" fill="white"/>
<path d="M943.997 351.519H893.757V401.729H943.997V351.519Z" fill="#EFEFEF"/>
<path d="M943.997 401.729H893.757V451.95H943.997V401.729Z" fill="#FEFEFE"/>
<path d="M893.757 401.729H843.52V451.941H893.757V401.729Z" fill="#F1F1F1"/>
<path d="M893.757 351.519H843.52V401.729H893.757V351.519Z" fill="white"/>
<path d="M893.757 301.303H843.52V351.519H893.757V301.303Z" fill="#F1F1F1"/>
<path d="M843.52 301.303H793.28V351.519H843.52V301.303Z" fill="#F4F4F4"/>
<path d="M843.52 351.519H793.28V401.729H843.52V351.519Z" fill="#F4F4F4"/>
<path d="M843.52 401.729H793.28V451.95H843.52V401.729Z" fill="#EBEBEB"/>
<path d="M793.281 401.729H743.038V451.941H793.281V401.729Z" fill="#F4F4F4"/>
<path d="M793.281 351.512H743.038V401.729H793.281V351.512Z" fill="white"/>
<path d="M793.281 301.303H743.038V351.512H793.281V301.303Z" fill="#E4E4E4"/>
<path d="M743.038 301.303H692.799V351.519H743.038V301.303Z" fill="#F7F7F7"/>
<path d="M743.038 351.519H692.799V401.729H743.038V351.519Z" fill="#E9E9E9"/>
<path d="M743.038 401.729H692.799V451.95H743.038V401.729Z" fill="white"/>
<path d="M692.799 0.00695801H647.837V50.2153H692.799V0.00695801Z" fill="white"/>
<path d="M692.799 65.7525V50.2164H647.837V100.433H692.799V65.7525Z" fill="#F6F6F6"/>
<path d="M692.799 100.433H647.837V150.645H692.799V100.433Z" fill="white"/>
<path d="M692.799 150.645H647.837V200.86H692.799V150.645Z" fill="#EFEFEF"/>
<path d="M692.799 200.86H647.837V251.081H692.799V200.86Z" fill="white"/>
<path d="M692.799 251.082H647.837V301.296H692.799V251.082Z" fill="#ECECEC"/>
<path d="M647.837 251.074H597.595V301.296H647.837V251.074Z" fill="white"/>
<path d="M647.837 200.86H597.595V251.073H647.837V200.86Z" fill="#E5E5E5"/>
<path d="M647.837 150.64H597.595V200.86H647.837V150.64Z" fill="white"/>
<path d="M647.837 100.433H597.595V150.64H647.837V100.433Z" fill="#F6F6F6"/>
<path d="M647.837 50.2119H597.595V100.433H647.837V50.2119Z" fill="white"/>
<path d="M647.837 0.00695801H597.595V50.2107H647.837V0.00695801Z" fill="white"/>
<path d="M597.595 0.00695801H547.357V50.2153H597.595V0.00695801Z" fill="white"/>
<path d="M597.595 50.2164H547.357V100.433H597.595V50.2164Z" fill="white"/>
<path d="M597.595 100.433H547.357V150.645H597.595V100.433Z" fill="white"/>
<path d="M597.595 150.645H547.357V200.86H597.595V150.645Z" fill="#FCFCFC"/>
<path d="M597.595 200.86H547.357V251.081H597.595V200.86Z" fill="white"/>
<path d="M597.595 251.082H547.357V301.296H597.595V251.082Z" fill="#FBFBFB"/>
<path d="M547.357 251.074H497.12V301.296H547.357V251.074Z" fill="#F2F2F2"/>
<path d="M547.357 200.86H497.12V251.073H547.357V200.86Z" fill="#F5F5F5"/>
<path d="M547.357 150.64H497.12V200.86H547.357V150.64Z" fill="white"/>
<path d="M547.357 100.433H497.12V150.64H547.357V100.433Z" fill="#F4F4F4"/>
<path d="M547.357 50.2119H497.12V100.433H547.357V50.2119Z" fill="white"/>
<path d="M547.357 0.00695801H497.12V50.2107H547.357V0.00695801Z" fill="#FCFCFC"/>
<path d="M497.12 0H446.88V50.2107H497.12V0Z" fill="white"/>
<path d="M497.12 50.2119H446.88V100.428H497.12V50.2119Z" fill="white"/>
<path d="M497.12 100.428H446.88V150.64H497.12V100.428Z" fill="white"/>
<path d="M497.12 150.64H446.88V200.854H497.12V150.64Z" fill="#FBFBFB"/>
<path d="M497.12 200.855H446.88V251.074H497.12V200.855Z" fill="white"/>
<path d="M497.12 251.074H446.88V301.292H497.12V251.074Z" fill="#E4E4E4"/>
<path d="M446.881 251.074H396.637V301.292H446.881V251.074Z" fill="white"/>
<path d="M446.881 200.855H396.637V251.074H446.881V200.855Z" fill="white"/>
<path d="M446.881 150.635H396.637V200.854H446.881V150.635Z" fill="white"/>
<path d="M446.881 100.433H396.637V150.64H446.881V100.433Z" fill="white"/>
<path d="M446.881 50.2119H396.637V100.433H446.881V50.2119Z" fill="white"/>
<path d="M446.881 0H396.637V50.2107H446.881V0Z" fill="#F5F5F5"/>
<path d="M396.637 0H346.4V50.2107H396.637V0Z" fill="white"/>
<path d="M396.637 50.2119H346.4V100.428H396.637V50.2119Z" fill="#F5F5F5"/>
<path d="M396.637 100.428H346.4V150.64H396.637V100.428Z" fill="white"/>
<path d="M396.637 150.64H346.4V200.854H396.637V150.64Z" fill="#F5F5F5"/>
<path d="M396.637 200.855H346.4V251.074H396.637V200.855Z" fill="white"/>
<path d="M396.637 251.074H346.4V301.292H396.637V251.074Z" fill="#F5F5F5"/>
<path d="M692.799 301.296H647.837V351.512H692.799V301.296Z" fill="white"/>
<path d="M692.799 351.512H647.837V401.724H692.799V351.512Z" fill="#E4E4E4"/>
<path d="M692.799 401.725H647.837V451.945H692.799V401.725Z" fill="#EEEEEE"/>
<path d="M647.837 401.725H597.595V451.937H647.837V401.725Z" fill="#F2F2F2"/>
<path d="M647.837 351.512H597.595V401.724H647.837V351.512Z" fill="white"/>
<path d="M647.837 301.296H597.595V351.512H647.837V301.296Z" fill="#F3F3F3"/>
<path d="M597.595 301.296H547.357V351.512H597.595V301.296Z" fill="white"/>
<path d="M597.595 351.512H547.357V401.724H597.595V351.512Z" fill="#EFEFEF"/>
<path d="M597.595 401.725H547.357V451.945H597.595V401.725Z" fill="#FEFEFE"/>
<path d="M547.357 401.725H497.12V451.937H547.357V401.725Z" fill="#F1F1F1"/>
<path d="M547.357 351.512H497.12V401.724H547.357V351.512Z" fill="white"/>
<path d="M547.357 301.296H497.12V351.512H547.357V301.296Z" fill="#F1F1F1"/>
<path d="M497.12 301.296H446.88V351.512H497.12V301.296Z" fill="#F4F4F4"/>
<path d="M497.12 351.512H446.88V401.724H497.12V351.512Z" fill="#F4F4F4"/>
<path d="M497.12 401.725H446.88V451.945H497.12V401.725Z" fill="#EBEBEB"/>
<path d="M446.881 401.725H396.637V451.937H446.881V401.725Z" fill="#F4F4F4"/>
<path d="M446.881 351.506H396.637V401.724H446.881V351.506Z" fill="white"/>
<path d="M446.881 301.296H396.637V351.506H446.881V301.296Z" fill="#E4E4E4"/>
<path d="M396.637 301.296H346.4V351.512H396.637V301.296Z" fill="#F7F7F7"/>
<path d="M396.637 351.512H346.4V401.724H396.637V351.512Z" fill="#E9E9E9"/>
<path d="M396.637 401.725H346.4V451.945H396.637V401.725Z" fill="white"/>
<path d="M346.4 0.00695801H301.436V50.2153H346.4V0.00695801Z" fill="white"/>
<path d="M346.4 65.7525V50.2164H301.436V100.433H346.4V65.7525Z" fill="#F6F6F6"/>
<path d="M346.4 100.433H301.436V150.645H346.4V100.433Z" fill="white"/>
<path d="M346.4 150.645H301.436V200.86H346.4V150.645Z" fill="#EFEFEF"/>
<path d="M346.4 200.86H301.436V251.081H346.4V200.86Z" fill="white"/>
<path d="M346.4 251.082H301.436V301.296H346.4V251.082Z" fill="#ECECEC"/>
<path d="M301.436 251.074H251.196V301.296H301.436V251.074Z" fill="white"/>
<path d="M301.436 200.86H251.196V251.073H301.436V200.86Z" fill="white"/>
<path d="M301.436 150.64H251.196V200.86H301.436V150.64Z" fill="white"/>
<path d="M301.436 100.433H251.196V150.64H301.436V100.433Z" fill="#F6F6F6"/>
<path d="M301.436 50.2119H251.196V100.433H301.436V50.2119Z" fill="white"/>
<path d="M301.436 0.00695801H251.196V50.2107H301.436V0.00695801Z" fill="#F6F6F6"/>
<path d="M251.197 0.00695801H200.957V50.2153H251.197V0.00695801Z" fill="white"/>
<path d="M251.197 50.2164H200.957V100.433H251.197V50.2164Z" fill="#EBEBEB"/>
<path d="M251.197 100.433H200.957V150.645H251.197V100.433Z" fill="white"/>
<path d="M251.197 150.645H200.957V200.86H251.197V150.645Z" fill="#FCFCFC"/>
<path d="M251.197 200.86H200.957V251.081H251.197V200.86Z" fill="white"/>
<path d="M251.197 251.082H200.957V301.296H251.197V251.082Z" fill="#FBFBFB"/>
<path d="M200.957 251.074H150.72V301.296H200.957V251.074Z" fill="#F2F2F2"/>
<path d="M200.957 200.86H150.72V251.073H200.957V200.86Z" fill="white"/>
<path d="M200.957 150.64H150.72V200.86H200.957V150.64Z" fill="white"/>
<path d="M200.957 100.433H150.72V150.64H200.957V100.433Z" fill="white"/>
<path d="M200.957 50.2119H150.72V100.433H200.957V50.2119Z" fill="white"/>
<path d="M200.957 0.00695801H150.72V50.2107H200.957V0.00695801Z" fill="#FCFCFC"/>
<path d="M150.72 0H100.481V50.2107H150.72V0Z" fill="white"/>
<path d="M150.72 50.2119H100.481V100.428H150.72V50.2119Z" fill="white"/>
<path d="M150.72 100.428H100.481V150.64H150.72V100.428Z" fill="white"/>
<path d="M150.72 150.64H100.481V200.854H150.72V150.64Z" fill="#FBFBFB"/>
<path d="M150.72 200.855H100.481V251.074H150.72V200.855Z" fill="white"/>
<path d="M150.72 251.074H100.481V301.292H150.72V251.074Z" fill="#E4E4E4"/>
<path d="M100.483 251.074H50.2384V301.292H100.483V251.074Z" fill="white"/>
<path d="M100.483 200.855H50.2384V251.074H100.483V200.855Z" fill="white"/>
<path d="M100.483 150.635H50.2384V200.854H100.483V150.635Z" fill="white"/>
<path d="M100.483 100.433H50.2384V150.64H100.483V100.433Z" fill="#EEEEEE"/>
<path d="M100.483 50.2119H50.2384V100.433H100.483V50.2119Z" fill="white"/>
<path d="M100.483 0H50.2384V50.2107H100.483V0Z" fill="#F5F5F5"/>
<path d="M50.2384 0H0V50.2107H50.2384V0Z" fill="white"/>
<path d="M50.2384 50.2119H0V100.428H50.2384V50.2119Z" fill="#F5F5F5"/>
<path d="M50.2384 100.428H0V150.64H50.2384V100.428Z" fill="white"/>
<path d="M50.2384 150.64H0V200.854H50.2384V150.64Z" fill="#F5F5F5"/>
<path d="M50.2384 200.855H0V251.074H50.2384V200.855Z" fill="white"/>
<path d="M50.2384 251.074H0V301.292H50.2384V251.074Z" fill="#F5F5F5"/>
<path d="M346.4 301.296H301.436V351.512H346.4V301.296Z" fill="white"/>
<path d="M346.4 351.512H301.436V401.724H346.4V351.512Z" fill="#E4E4E4"/>
<path d="M346.4 401.725H301.436V451.945H346.4V401.725Z" fill="#EEEEEE"/>
<path d="M301.436 401.725H251.196V451.937H301.436V401.725Z" fill="#F2F2F2"/>
<path d="M301.436 351.512H251.196V401.724H301.436V351.512Z" fill="white"/>
<path d="M301.436 301.296H251.196V351.512H301.436V301.296Z" fill="#F3F3F3"/>
<path d="M251.197 301.296H200.957V351.512H251.197V301.296Z" fill="white"/>
<path d="M251.197 351.512H200.957V401.724H251.197V351.512Z" fill="#EFEFEF"/>
<path d="M251.197 401.725H200.957V451.945H251.197V401.725Z" fill="#FEFEFE"/>
<path d="M200.957 401.725H150.72V451.937H200.957V401.725Z" fill="#F1F1F1"/>
<path d="M200.957 351.512H150.72V401.724H200.957V351.512Z" fill="white"/>
<path d="M200.957 301.296H150.72V351.512H200.957V301.296Z" fill="#F1F1F1"/>
<path d="M150.72 301.296H100.481V351.512H150.72V301.296Z" fill="#F4F4F4"/>
<path d="M150.72 351.512H100.481V401.724H150.72V351.512Z" fill="#F4F4F4"/>
<path d="M150.72 401.725H100.481V451.945H150.72V401.725Z" fill="#EBEBEB"/>
<path d="M100.483 401.725H50.2384V451.937H100.483V401.725Z" fill="#F4F4F4"/>
<path d="M100.483 351.506H50.2384V401.724H100.483V351.506Z" fill="white"/>
<path d="M100.483 301.296H50.2384V351.506H100.483V301.296Z" fill="#E4E4E4"/>
<path d="M50.2384 301.296H0V351.512H50.2384V301.296Z" fill="#F7F7F7"/>
<path d="M50.2384 351.512H0V401.724H50.2384V351.512Z" fill="#E9E9E9"/>
<path d="M50.2384 401.725H0V451.945H50.2384V401.725Z" fill="white"/>
<path d="M1732 0.0126953H1687.04V50.2222H1732V0.0126953Z" fill="white"/>
<path d="M1732 65.7594V50.2234H1687.04V100.44H1732V65.7594Z" fill="white"/>
<path d="M1732 100.44H1687.04V150.65H1732V100.44Z" fill="white"/>
<path d="M1732 150.651H1687.04V200.867H1732V150.651Z" fill="white"/>
<path d="M1732 200.867H1687.04V251.087H1732V200.867Z" fill="white"/>
<path d="M1732 251.088H1687.04V301.303H1732V251.088Z" fill="#ECECEC"/>
<path d="M1687.04 251.082H1636.8V301.303H1687.04V251.082Z" fill="white"/>
<path d="M1687.04 200.867H1636.8V251.081H1687.04V200.867Z" fill="#E5E5E5"/>
<path d="M1687.04 150.647H1636.8V200.867H1687.04V150.647Z" fill="white"/>
<path d="M1687.04 100.44H1636.8V150.647H1687.04V100.44Z" fill="#F6F6F6"/>
<path d="M1687.04 50.2164H1636.8V100.44H1687.04V50.2164Z" fill="white"/>
<path d="M1687.04 0.0126953H1636.8V50.2164H1687.04V0.0126953Z" fill="#F6F6F6"/>
<path d="M1636.8 0.0126953H1586.56V50.2222H1636.8V0.0126953Z" fill="white"/>
<path d="M1636.8 50.2234H1586.56V100.44H1636.8V50.2234Z" fill="white"/>
<path d="M1636.8 100.44H1586.56V150.65H1636.8V100.44Z" fill="white"/>
<path d="M1636.8 150.651H1586.56V200.867H1636.8V150.651Z" fill="#FCFCFC"/>
<path d="M1636.8 200.867H1586.56V251.087H1636.8V200.867Z" fill="white"/>
<path d="M1636.8 251.088H1586.56V301.303H1636.8V251.088Z" fill="#FBFBFB"/>
<path d="M1586.56 251.082H1536.32V301.303H1586.56V251.082Z" fill="#F2F2F2"/>
<path d="M1586.56 200.867H1536.32V251.081H1586.56V200.867Z" fill="#F5F5F5"/>
<path d="M1586.56 150.647H1536.32V200.867H1586.56V150.647Z" fill="white"/>
<path d="M1586.56 100.44H1536.32V150.647H1586.56V100.44Z" fill="white"/>
<path d="M1586.56 50.2164H1536.32V100.44H1586.56V50.2164Z" fill="white"/>
<path d="M1586.56 0.0126953H1536.32V50.2164H1586.56V0.0126953Z" fill="#FCFCFC"/>
<path d="M1536.32 0.00695801H1486.08V50.2153H1536.32V0.00695801Z" fill="white"/>
<path d="M1536.32 50.2164H1486.08V100.435H1536.32V50.2164Z" fill="#FCFCFC"/>
<path d="M1536.32 100.435H1486.08V150.647H1536.32V100.435Z" fill="white"/>
<path d="M1536.32 150.647H1486.08V200.86H1536.32V150.647Z" fill="#FBFBFB"/>
<path d="M1536.32 200.86H1486.08V251.081H1536.32V200.86Z" fill="white"/>
<path d="M1536.32 251.082H1486.08V301.296H1536.32V251.082Z" fill="#E4E4E4"/>
<path d="M1486.08 251.082H1435.84V301.296H1486.08V251.082Z" fill="white"/>
<path d="M1486.08 200.86H1435.84V251.081H1486.08V200.86Z" fill="white"/>
<path d="M1486.08 150.64H1435.84V200.86H1486.08V150.64Z" fill="white"/>
<path d="M1486.08 100.44H1435.84V150.647H1486.08V100.44Z" fill="#EEEEEE"/>
<path d="M1486.08 50.2164H1435.84V100.44H1486.08V50.2164Z" fill="white"/>
<path d="M1486.08 0.00695801H1435.84V50.2153H1486.08V0.00695801Z" fill="white"/>
<path d="M1435.84 0.00695801H1385.6V50.2153H1435.84V0.00695801Z" fill="white"/>
<path d="M1435.84 50.2164H1385.6V100.435H1435.84V50.2164Z" fill="white"/>
<path d="M1435.84 100.435H1385.6V150.647H1435.84V100.435Z" fill="white"/>
<path d="M1435.84 150.647H1385.6V200.86H1435.84V150.647Z" fill="#F5F5F5"/>
<path d="M1435.84 200.86H1385.6V251.081H1435.84V200.86Z" fill="white"/>
<path d="M1435.84 251.082H1385.6V301.296H1435.84V251.082Z" fill="#F5F5F5"/>
<path d="M1732 301.303H1687.04V351.519H1732V301.303Z" fill="white"/>
<path d="M1732 351.519H1687.04V401.729H1732V351.519Z" fill="#E4E4E4"/>
<path d="M1732 401.729H1687.04V451.949H1732V401.729Z" fill="#EEEEEE"/>
<path d="M1687.04 401.729H1636.8V451.941H1687.04V401.729Z" fill="#F2F2F2"/>
<path d="M1687.04 351.519H1636.8V401.729H1687.04V351.519Z" fill="white"/>
<path d="M1687.04 301.303H1636.8V351.519H1687.04V301.303Z" fill="#F3F3F3"/>
<path d="M1636.8 301.303H1586.56V351.519H1636.8V301.303Z" fill="white"/>
<path d="M1636.8 351.519H1586.56V401.729H1636.8V351.519Z" fill="#EFEFEF"/>
<path d="M1636.8 401.729H1586.56V451.949H1636.8V401.729Z" fill="#FEFEFE"/>
<path d="M1586.56 401.729H1536.32V451.941H1586.56V401.729Z" fill="#F1F1F1"/>
<path d="M1586.56 351.519H1536.32V401.729H1586.56V351.519Z" fill="white"/>
<path d="M1586.56 301.303H1536.32V351.519H1586.56V301.303Z" fill="#F1F1F1"/>
<path d="M1536.32 301.303H1486.08V351.519H1536.32V301.303Z" fill="#F4F4F4"/>
<path d="M1536.32 351.519H1486.08V401.729H1536.32V351.519Z" fill="#F4F4F4"/>
<path d="M1536.32 401.729H1486.08V451.949H1536.32V401.729Z" fill="#EBEBEB"/>
<path d="M1486.08 401.729H1435.84V451.941H1486.08V401.729Z" fill="#F4F4F4"/>
<path d="M1486.08 351.512H1435.84V401.729H1486.08V351.512Z" fill="white"/>
<path d="M1486.08 301.303H1435.84V351.512H1486.08V301.303Z" fill="#E4E4E4"/>
<path d="M1435.84 301.303H1385.6V351.519H1435.84V301.303Z" fill="#F7F7F7"/>
<path d="M1435.84 351.519H1385.6V401.729H1435.84V351.519Z" fill="#E9E9E9"/>
<path d="M1435.84 401.729H1385.6V451.949H1435.84V401.729Z" fill="white"/>
<path d="M1385.6 0.0126953H1340.64V50.2222H1385.6V0.0126953Z" fill="white"/>
<path d="M1385.6 65.7594V50.2234H1340.64V100.44H1385.6V65.7594Z" fill="#F6F6F6"/>
<path d="M1385.6 100.44H1340.64V150.65H1385.6V100.44Z" fill="white"/>
<path d="M1385.6 150.651H1340.64V200.867H1385.6V150.651Z" fill="white"/>
<path d="M1385.6 200.867H1340.64V251.087H1385.6V200.867Z" fill="white"/>
<path d="M1385.6 251.088H1340.64V301.303H1385.6V251.088Z" fill="#ECECEC"/>
<path d="M1340.64 251.082H1290.4V301.303H1340.64V251.082Z" fill="white"/>
<path d="M1340.64 200.867H1290.4V251.081H1340.64V200.867Z" fill="#E5E5E5"/>
<path d="M1340.64 150.647H1290.4V200.867H1340.64V150.647Z" fill="white"/>
<path d="M1340.64 100.44H1290.4V150.647H1340.64V100.44Z" fill="#F6F6F6"/>
<path d="M1340.64 50.2164H1290.4V100.44H1340.64V50.2164Z" fill="white"/>
<path d="M1340.64 0.0126953H1290.4V50.2164H1340.64V0.0126953Z" fill="#F6F6F6"/>
<path d="M1290.4 0.0126953H1240.16V50.2222H1290.4V0.0126953Z" fill="white"/>
<path d="M1290.4 50.2234H1240.16V100.44H1290.4V50.2234Z" fill="#FBFBFB"/>
<path d="M1290.4 100.44H1240.16V150.65H1290.4V100.44Z" fill="white"/>
<path d="M1290.4 150.651H1240.16V200.867H1290.4V150.651Z" fill="#FCFCFC"/>
<path d="M1290.4 200.867H1240.16V251.087H1290.4V200.867Z" fill="white"/>
<path d="M1290.4 251.088H1240.16V301.303H1290.4V251.088Z" fill="#FBFBFB"/>
<path d="M1240.16 251.082H1189.92V301.303H1240.16V251.082Z" fill="#F2F2F2"/>
<path d="M1240.16 200.867H1189.92V251.081H1240.16V200.867Z" fill="#F5F5F5"/>
<path d="M1240.16 150.647H1189.92V200.867H1240.16V150.647Z" fill="white"/>
<path d="M1240.16 100.44H1189.92V150.647H1240.16V100.44Z" fill="#F4F4F4"/>
<path d="M1240.16 50.2164H1189.92V100.44H1240.16V50.2164Z" fill="white"/>
<path d="M1240.16 0.0126953H1189.92V50.2164H1240.16V0.0126953Z" fill="#FCFCFC"/>
<path d="M1189.92 0.00695801H1139.68V50.2153H1189.92V0.00695801Z" fill="white"/>
<path d="M1189.92 50.2164H1139.68V100.435H1189.92V50.2164Z" fill="#EEEEEE"/>
<path d="M1189.92 100.435H1139.68V150.647H1189.92V100.435Z" fill="white"/>
<path d="M1189.92 150.647H1139.68V200.86H1189.92V150.647Z" fill="#FBFBFB"/>
<path d="M1189.92 200.86H1139.68V251.081H1189.92V200.86Z" fill="white"/>
<path d="M1189.92 251.082H1139.68V301.296H1189.92V251.082Z" fill="#E4E4E4"/>
<path d="M1139.68 251.082H1089.44V301.296H1139.68V251.082Z" fill="white"/>
<path d="M1139.68 200.86H1089.44V251.081H1139.68V200.86Z" fill="white"/>
<path d="M1139.68 150.64H1089.44V200.86H1139.68V150.64Z" fill="white"/>
<path d="M1139.68 100.44H1089.44V150.647H1139.68V100.44Z" fill="white"/>
<path d="M1139.68 50.2164H1089.44V100.44H1139.68V50.2164Z" fill="white"/>
<path d="M1139.68 0.00695801H1089.44V50.2153H1139.68V0.00695801Z" fill="white"/>
<path d="M1089.44 0.00695801H1039.2V50.2153H1089.44V0.00695801Z" fill="white"/>
<path d="M1089.44 50.2164H1039.2V100.435H1089.44V50.2164Z" fill="#F5F5F5"/>
<path d="M1089.44 100.435H1039.2V150.647H1089.44V100.435Z" fill="white"/>
<path d="M1089.44 150.647H1039.2V200.86H1089.44V150.647Z" fill="white"/>
<path d="M1089.44 200.86H1039.2V251.081H1089.44V200.86Z" fill="white"/>
<path d="M1089.44 251.082H1039.2V301.296H1089.44V251.082Z" fill="#F5F5F5"/>
<path d="M1385.6 301.303H1340.64V351.519H1385.6V301.303Z" fill="white"/>
<path d="M1385.6 351.519H1340.64V401.729H1385.6V351.519Z" fill="#E4E4E4"/>
<path d="M1385.6 401.729H1340.64V451.949H1385.6V401.729Z" fill="#EEEEEE"/>
<path d="M1340.64 401.729H1290.4V451.941H1340.64V401.729Z" fill="#F2F2F2"/>
<path d="M1340.64 351.519H1290.4V401.729H1340.64V351.519Z" fill="white"/>
<path d="M1340.64 301.303H1290.4V351.519H1340.64V301.303Z" fill="#F3F3F3"/>
<path d="M1290.4 301.303H1240.16V351.519H1290.4V301.303Z" fill="white"/>
<path d="M1290.4 351.519H1240.16V401.729H1290.4V351.519Z" fill="#EFEFEF"/>
<path d="M1290.4 401.729H1240.16V451.949H1290.4V401.729Z" fill="#FEFEFE"/>
<path d="M1240.16 401.729H1189.92V451.941H1240.16V401.729Z" fill="#F1F1F1"/>
<path d="M1240.16 351.519H1189.92V401.729H1240.16V351.519Z" fill="white"/>
<path d="M1240.16 301.303H1189.92V351.519H1240.16V301.303Z" fill="#F1F1F1"/>
<path d="M1189.92 301.303H1139.68V351.519H1189.92V301.303Z" fill="#F4F4F4"/>
<path d="M1189.92 351.519H1139.68V401.729H1189.92V351.519Z" fill="#F4F4F4"/>
<path d="M1189.92 401.729H1139.68V451.949H1189.92V401.729Z" fill="#EBEBEB"/>
<path d="M1139.68 401.729H1089.44V451.941H1139.68V401.729Z" fill="#F4F4F4"/>
<path d="M1139.68 351.512H1089.44V401.729H1139.68V351.512Z" fill="white"/>
<path d="M1139.68 301.303H1089.44V351.512H1139.68V301.303Z" fill="#F5F5F5"/>
<path d="M1089.44 301.303H1039.2V351.519H1089.44V301.303Z" fill="#F7F7F7"/>
<path d="M1089.44 351.519H1039.2V401.729H1089.44V351.519Z" fill="#E9E9E9"/>
<path d="M1089.44 401.729H1039.2V451.949H1089.44V401.729Z" fill="white"/>
</svg>
