<svg width="155" height="151" viewBox="0 0 155 151" fill="none" xmlns="http://www.w3.org/2000/svg">
<g clip-path="url(#clip0_0_1648)">
<rect width="154.279" height="149.603" transform="translate(0 0.593994)" fill="white"/>
<mask id="mask0_0_1648" style="mask-type:luminance" maskUnits="userSpaceOnUse" x="0" y="0" width="151" height="151">
<path d="M150.937 0.593994H0V150.197H150.937V0.593994Z" fill="white"/>
</mask>
<g mask="url(#mask0_0_1648)">
<g filter="url(#filter0_d_0_1648)">
<path d="M14.4496 118.25C20.7701 127.041 28.8774 134.397 38.2401 139.836C47.603 145.274 58.0093 148.672 68.7775 149.806C63.2375 141.47 55.1846 133.8 45.1314 127.961C35.0783 122.122 24.4318 118.932 14.4496 118.25Z" fill="#0D0D0D"/>
<path d="M58.6398 104.71C39.2715 93.4579 18.3082 90.5902 3.30829 95.6561C4.75634 100.442 6.66608 105.076 9.0106 109.493C22.0429 109.191 36.272 112.73 49.5121 120.42C62.7524 128.11 72.8792 138.724 79.0761 150.197C84.0766 150.044 89.0509 149.406 93.9289 148.295C90.8961 132.758 78.0036 115.965 58.6398 104.71Z" fill="#0D0D0D"/>
<path d="M150.937 59.0369C148.474 49.0205 144.019 39.6031 137.836 31.3469C131.653 23.0907 123.87 16.1651 114.951 10.9836C106.032 5.80208 96.1609 2.47095 85.9266 1.18906C75.6919 -0.09283 65.3038 0.700837 55.3828 3.52266C71.9569 5.55103 90.3544 11.7731 108.397 22.2548C126.439 32.7364 140.97 45.6344 150.937 59.0369Z" fill="#0D0D0D"/>
<path d="M126.822 95.7712C118.338 81.6818 103.805 68.1904 85.9017 57.7901C67.9989 47.3894 49.0843 41.4488 32.657 41.0558C18.2048 40.7135 7.35801 44.9148 2.90571 52.5797C2.88036 52.6251 2.84486 52.6681 2.81697 52.7139C2.41636 54.1515 2.07154 55.5914 1.75714 57.037C7.97415 54.5825 15.1774 53.216 23.187 53.0636C40.9987 52.7293 60.9324 58.4264 79.3276 69.1132C97.7223 79.8005 112.557 94.3008 121.087 109.934C124.91 116.978 127.296 123.913 128.242 130.538C129.342 129.554 130.422 128.537 131.47 127.48C131.498 127.432 131.515 127.381 131.543 127.33C135.995 119.658 134.274 108.157 126.822 95.7712Z" fill="#0D0D0D"/>
<path d="M72.2814 81.2324C44.8652 65.3047 14.5688 62.8096 0 73.9252C0.0286161 77.4044 0.294609 80.8775 0.796133 84.3207C5.08179 83.0215 9.49874 82.2034 13.9654 81.8817C30.2457 80.6568 48.1943 85.1931 64.4823 94.6602C80.7699 104.128 93.6097 117.48 100.613 132.218C102.548 136.256 104.025 140.498 105.014 144.865C108.254 143.595 111.405 142.106 114.444 140.41C116.883 122.246 99.7051 97.1628 72.2814 81.2324Z" fill="#0D0D0D"/>
<path d="M140.924 72.1888C132.344 58.1144 117.684 44.5851 99.6538 34.1161C81.6242 23.6471 62.6358 17.6127 46.1555 17.1284C33.5922 16.7658 23.861 19.8109 18.8154 25.5639C39.766 22.0143 67.4002 27.9803 94.1848 43.5405C120.97 59.1009 139.849 80.1552 147.136 100.112C149.633 92.8832 147.46 82.9215 140.924 72.1888Z" fill="#0D0D0D"/>
</g>
</g>
</g>
<defs>
<filter id="filter0_d_0_1648" x="-106.334" y="-95.107" width="363.606" height="362.272" filterUnits="userSpaceOnUse" color-interpolation-filters="sRGB">
<feFlood flood-opacity="0" result="BackgroundImageFix"/>
<feColorMatrix in="SourceAlpha" type="matrix" values="0 0 0 0 0 0 0 0 0 0 0 0 0 0 0 0 0 0 127 0" result="hardAlpha"/>
<feOffset dy="10.6335"/>
<feGaussianBlur stdDeviation="53.1672"/>
<feComposite in2="hardAlpha" operator="out"/>
<feColorMatrix type="matrix" values="0 0 0 0 0 0 0 0 0 0 0 0 0 0 0 0 0 0 0.1 0"/>
<feBlend mode="normal" in2="BackgroundImageFix" result="effect1_dropShadow_0_1648"/>
<feBlend mode="normal" in="SourceGraphic" in2="effect1_dropShadow_0_1648" result="shape"/>
</filter>
<clipPath id="clip0_0_1648">
<rect width="154.279" height="149.603" fill="white" transform="translate(0 0.593994)"/>
</clipPath>
</defs>
</svg>
